<?xml version="1.0" encoding="UTF-8" standalone="yes"?>
<!DOCTYPE svg PUBLIC "-//W3C//DTD SVG 1.1//EN" "http://www.w3.org/Graphics/SVG/1.1/DTD/svg11.dtd">

<svg width="1024" height="1024" viewBox="0 0 1024 1024" xmlns="http://www.w3.org/2000/svg" xmlns:xlink="http://www.w3.org/1999/xlink" version="1.1" baseProfile="full">
    <defs>
        <linearGradient id="11364336" x1="0%" x2="0%" y1="0%" y2="100%">
            <stop offset="0%" style="stop-color:#a754e2;stop-opacity:1.000000"></stop>
            <stop offset="98%" style="stop-color:#647dee;stop-opacity:1.000000"></stop>
        </linearGradient>
    </defs>
    <g transform="scale(1,-1) translate(0,-1024)">
        <path d="M 448.347778 4.985705 L 455.496534 4.985705 L 484.705767 9.075324 L 512.239535 20.308838 L 536.422349 37.133229 L 555.578719 57.995480 L 1177.518234 988.979456 L 1188.436801 1009.673437 L 1194.496465 1031.532189 L 1195.864774 1053.856853 L 1192.709274 1075.948567 L 1185.197513 1097.108470 L 1173.497039 1116.637704 L 1157.775399 1133.837407 L 1138.200140 1148.008719 L 1115.874340 1158.129236 L 1092.291921 1163.745994 L 1068.206851 1165.014295 L 1044.373101 1162.089444 L 1021.544637 1155.126742 L 1000.475431 1144.281492 L 981.919449 1129.708996 L 966.630661 1111.564558 L 437.624711 323.044295 L 226.737172 581.466865 L 210.275543 598.226545 L 190.881819 611.181327 L 169.309968 620.253560 L 146.313958 625.365592 L 122.647754 626.439770 L 99.065325 623.398442 L 76.320637 616.163957 L 55.167659 604.658661 L 35.913562 588.306644 L 21.099496 569.508624 L 10.809235 548.924634 L 5.126554 527.214707 L 4.135226 505.038875 L 7.919027 483.057171 L 16.561731 461.929627 L 30.147113 442.316275 L 348.265559 51.369235 L 368.929851 31.542348 L 392.945114 16.995727 L 419.641153 8.039978 L 448.347778 4.985705 Z" transform="scale(0.500000,0.500000) translate(424.000000,439.000000)" fill="url(#11364336)" opacity="1.000000"></path>
    </g>
</svg>